<svg xmlns="http://www.w3.org/2000/svg" id="svg1" version="1.1" viewBox="0 0 1040 1040">
  <style>
    :root {
      --fill: #202124;
      --accent: #ff4444;
    }
    @media (prefers-color-scheme: dark) {
      :root {
        --fill: #f8f9fa;
      }
    }
    path { fill: var(--fill); }
    #note { fill: var(--accent); }
  </style>
  <path id="jar" d="M428.9 184.6c-146.5-9.6-258.2-43-225.7-67.5 78.7-59 512.9-64 626.7-7.1 81.9 41-177.8 89.2-401 74.6Zm70.8-186C431.8-.9 351.5 7.1 297 17.2c-130 24-199.7 63.4-203.4 115l-.9 11.7 6.2 12.8c3.4 7 9.3 16.7 13 21.6l6.6 8.8-.5 14.2c-.7 17.1-1.2 18-22.9 35.5-48 38.9-51.4 57.7-53.9 296.7-1.9 188.6 2.9 306.6 13.7 340.8 27.8 87.6 175 152 375.6 164 330.1 20 543.8-57.7 562.4-204.4l1.4-10.2 4.9-294.2-1.4-82.5s3.2-75.8-1.8-113.3a74 74 0 0 0-5.2-20.2c-14-31.6-18.8-52.1-57.4-86.4L920.7 216V189s6.8-6.6 9.4-10.5a87.2 87.2 0 0 0 15-31 73 73 0 0 0-2.7-35.3 81.4 81.4 0 0 0-16.7-27.5s-10-10.6-16-14.7c-9.6-6.3-31.2-14.5-31.2-14.5-3.1-.6-7.3-2.6-13.8-5.6-8.8-4-26.6-10.4-39.5-14.2-28.1-8.2-85.4-18.7-85.4-18.7l-8.4-1.4a1401.1 1401.1 0 0 0-231.7-17Zm64.2 43.1C681.2 44 790.6 61 858.5 92.4 977 147 859.8 208.9 615.5 221 252 239-7.6 146 222.8 80.4c99-28.2 224-40.9 341.1-38.7ZM160.4 205h3.2c1.8 0 9.8 3.1 17.7 6.9 31.8 15 103.6 29 195.3 37.8l62.3 6h54c159.5 0 308-16.8 368-41.6 18.8-7.8 21.3-7.7 21.3.8 0 3.1 1.4 10.6 3.2 16.6 0 0 1.3 7.8 3.3 11 6 10 25 24.4 25 24.4s18.5 14.6 24.8 24.3c2.3 3.6 3.6 8 4.4 12.2C961 394 955 380 955.1 580.3c.2 267.7-4.2 296.5-51.1 333.6-49.6 39.2-136.3 64.8-264.2 78-133 13.8-315.8 1-391.5-27.2-7.8-3-22-8.1-31.4-11.6-85.5-30.9-117.5-63.4-123.5-125.4-16.8-173.5-13-478.2 6.5-525.3l6.4-15.2 12.2-12.2 23.8-23c12.3-11.6 14.7-16.7 16.8-35.3z"/>
  <path id="note" d="M312 890.5a71.2 71.2 0 0 1-51.4-67.2l-.4-18.8 7.4-16.4c14.3-32 45.9-59 80.9-69l18.7-5.3 26.2 1.1 26.1 1.1-.4-29.3c-.2-16.1-2.7-87.4-5.5-158.4l-5.1-129 4.3-8.8c6.2-12.4 4.2-11.9 176.1-48.3l155.6-33 8.3 3.3c13.3 5.2 19 89.8 26.4 387.4l.6 24.6-7.3 16.3c-34.1 77.6-150.4 98.7-189.4 34.5l-8-13-.3-21.8-.2-21.7 7.5-14.9c23.7-47 82.7-78.4 131.4-69.7 9.2 1.6 16.8 1.7 18.3.1 4-4-3.6-184.6-8-190.4l-3.6-4.8-127.9 27.7c-74 16.1-130 29.6-133 32.2l-5.3 4.4 4.4 101.3c2.4 55.7 5 123.4 5.7 150.5l1.4 49.2-8 18c-22.9 52.4-90.8 84-145.5 68z"/>
</svg>
