<svg xmlns="http://www.w3.org/2000/svg" xml:space="preserve" width="697.184" height="674.632"><path d="m220.727 673.714-18.5-1.931c-41.822-4.365-79.07-18.748-95.036-36.7-12.664-14.239-13.908-25.217-13.91-122.771-.003-83.198 2.1-95.483 18.39-107.5 2.61-1.925 5.153-4.258 5.651-5.184 1.076-2 1.203-7.763.14-6.316-3.384 4.606-42.573 30.827-54.814 36.676-15.63 7.467-24.514 7.118-30.434-1.194l-2.027-2.847-4.58 1.56-4.58 1.561-3.962-1.187C-15.427 418.147 0 365.116 50.423 313.221c11.373-11.705 11.235-11.316 5.072-14.31-21.12-10.26-21.853-28.049-1.958-47.564 28.907-28.354 53.073-28.905 61.313-1.398 2.152 7.183.61 7.409 15.276-2.232 38.633-25.394 79.534-41.244 102.313-39.648 20.178 1.414 35.504 22.42 25.25 34.607l-2.46 2.922 1.978 4.357c5.567 12.27-4.319 24.969-51.248 65.828-9.142 7.96-16.534 14.56-16.427 14.667.108.107 5.82-.547 12.695-1.453 9.772-1.287 20.905-1.644 51-1.632l38.5.015 13.933 1.742c7.662.959 14.929 1.993 16.148 2.3l2.215.555 4.732-7.332c5.603-8.681 10.842-15.275 18.236-22.95l5.41-5.617-5.7-4.883c-41.126-35.22-61.325-103.041-45.926-154.206l1.393-4.63-1.402-.786c-17.287-9.674-30.826-33.958-32.202-57.761l-.608-10.5 2.129-8.412c1.17-4.627 3.99-12.277 6.264-17l4.136-8.588 8.121-8.039c28.076-27.789 69.662-28.426 96.654-1.48l8.532 8.519 9.582-3.17c44.91-14.854 94.112-12.917 133.72 5.265l7.365 3.382 4.884-4.391c40.792-36.675 103.745-18.78 121.037 34.406l3.091 9.508.505 12.03.505 12.032-2.117 8.469c-4.62 18.486-16.247 35.016-30.489 43.345-3.638 2.127-6.373 4.26-6.077 4.738 1.159 1.875.412 30.996-1.067 41.571-3.223 23.053-15.574 52.354-27.897 66.179l-2.107 2.364 4 3.103c28.03 21.746 54.64 69.513 72.626 130.363 37.947 128.39 8.265 203.574-95.395 241.637-50.997 18.726-85.457 20.642-114.73 6.379l-8.5-4.142-8.516-8.534c-8.781-8.8-14.526-17.412-18.076-27.095l-2.038-5.56-12.185-2.208c-6.702-1.214-12.523-2.2-12.936-2.19-.412.01-.757 1.931-.767 4.269-.172 42.186-40.158 66.35-121.217 73.254-18.418 1.569-53.07 1.777-66.266.398zm69-14.908c51.052-4.796 85.406-17.162 96.566-34.759 8.369-13.196 8.929-19.861 8.924-106.235-.005-88.482-.358-91.063-14.11-103.023-7.579-6.592-9.871-10.243-9.876-15.727-.004-4.996.436-4.875-6.784-1.869-45.422 18.911-178.83 18.453-226.155-.777l-6.065-2.464v3.064c0 7.034-2.092 10.743-9.455 16.76-7.124 5.82-9.252 9.112-12.502 19.335-5.69 17.898-3.16 172.637 3.031 185.408 14.543 29.998 93.653 48.063 176.426 40.287zm251-21.533c104.552-20.695 152.45-81.33 139.543-176.646-3.573-26.387-16.245-76.669-19.352-76.785-.445-.017-.555.38-.245.882 1.05 1.699-2.408 23.527-5.356 33.806-5.787 20.183-15.718 38.398-28.225 51.768-7.201 7.698-7.302 7.103 1.33 7.827 10.603.889 22.502 7.133 20.32 10.664-.271.438-7.135.573-15.254.3-18.26-.612-23.505.48-41.065 8.56-10.408 4.79-23.094 9.762-29.944 11.739-.938.27-.769 1.575.681 5.254 4.357 11.051 6.122 25.834 3.998 33.48-1.516 5.46-3.95 4.555-6.253-2.322-14.445-43.148-35.307-63.1-66.178-63.29-31.076-.191-48.86 20.848-52.436 62.037l-1.02 11.738 1.553 13.397c6.712 57.893 37.948 79.458 97.903 67.59zm-55.72-6.995c-38.793-12.403-47.126-97.894-11.264-115.549l6.464-3.181 7.48.48c45.25 2.904 63.579 93.166 23.668 116.555l-4.488 2.63-8.57.287c-5.624.188-10.192-.232-13.29-1.222zm21.01-9.378c33.29-17.16 17.112-100.088-19.526-100.088-36.998 0-35.593 87.322 1.619 100.62 5.43 1.94 13.58 1.698 17.907-.532zm-76.214-39.338c-.672-3.237-2.509-22.993-2.58-27.75-.027-1.733-1.204-3.324-3.837-5.186-2.09-1.477-6.084-4.74-8.876-7.25s-5.235-4.564-5.43-4.563c-.567.002-.15 43.035.423 43.607.534.535 17.139 4.196 19.6 4.322 1.028.052 1.205-.748.7-3.18zm1.396-59.349c4.774-20.658 18.136-39.91 32.528-46.867 3.3-1.595 6.158-3.013 6.35-3.15.193-.138-.37-3.122-1.25-6.631-7.954-31.72 9.733-54.65 48.4-62.75 25.225-5.283 34.002-15.175 39.49-44.503 3.733-19.945 5.526-22.684 8.18-12.491 9.047 34.743-7.51 61.525-43.486 70.342-32.41 7.943-45.329 23.104-38.473 45.149l1.866 6 9.962.78c22.218 1.74 36.088 7.437 49.438 20.306l8.682 8.37 6.421-1.89c95.406-28.087 119.893-152.42 42.195-214.246l-6.406-5.097-3.684 3.464c-16.955 15.944-42.617 30.34-67.185 37.687-26.84 8.027-35.774 9.133-75.5 9.35l-30 .163-9.5-2.091c-13.462-2.963-25.329-7.542-36.15-13.948l-9.35-5.535-7.051 7.459c-6.671 7.056-17.284 21.343-16.371 22.038.232.176 4.756 1.576 10.053 3.11 5.297 1.534 12.249 3.853 15.448 5.153 3.2 1.3 5.9 2.266 6.002 2.146.102-.12 1.81-3.464 3.795-7.43 7.323-14.627 11.573-12.384 7.406 3.91l-2.225 8.699 4.086 3.8c5.778 5.377 7.766 9.653 7.812 16.802l.038 6-2.824 4.811c-1.554 2.646-3.465 5.057-4.247 5.357-1.01.388-1.422 2.283-1.422 6.554v6.008l3.086 2.635c9.768 8.342 11.919 10.667 14.69 15.883 1.68 3.163 3.848 9.352 4.816 13.752l1.761 8 .318 36.938.319 36.939 2.714 3.916c3.168 4.572 14.086 14.707 15.844 14.707.704 0 2.13-3.998 3.424-9.599zM51.458 417.062c2.33-2.063 11.894-10.726 21.253-19.251 23.013-20.963 48.894-43.748 55.153-48.555 2.825-2.169 12.95-10.325 22.5-18.124 30.055-24.543 71.954-56.85 87.267-67.286 2.698-1.838 5.726-4.163 6.73-5.167l1.824-1.825-2.077-3.52c-1.25-2.12-2.534-3.24-3.228-2.816-3.98 2.427-46.038 33.19-55.031 40.251a3615.695 3615.695 0 0 1-16.054 12.543c-33.349 25.776-90.14 74.79-118.568 102.33l-11.5 11.141 2.361 2.015c3.273 2.792 4.514 2.562 9.37-1.736zm-13.732-17.25c13.694-12.956 49.08-44.936 57.986-52.404 38.853-32.58 54.084-45.12 69.515-57.232 18.63-14.622 61.835-45.86 74.5-53.865 3.3-2.085 6.176-3.939 6.39-4.118.214-.18-.79-1.874-2.233-3.765-20.6-27.008-132.005 34.2-194.734 106.99-30.772 35.707-44.226 71.373-29.502 78.205l2.08.965 2.978-2.638c1.639-1.45 7.498-6.913 13.02-12.138zm240.501-.431c102.384-2.833 133.994-32.764 55.462-52.516-67.483-16.974-208.462-.956-208.462 23.686 0 15.54 67.208 31.251 126.5 29.57 5.5-.156 17.425-.489 26.5-.74zm-53-11.26c-19.354-1.133-42.342-3.78-51-5.874-19.506-4.716-27.37-7.961-29.241-12.067l-1.184-2.598 3.162-2.826c20.451-18.273 151.917-21.114 201.917-4.362 41.414 13.875-41.736 32.519-123.654 27.726zm226.5-76.796c60.305-12.726 52.369-81.234-11.5-99.268l-9.5-2.682-14.5-.027c-34.274-.063-58.901 16.31-62.986 41.88l-1.073 6.718 1.66 6.683c8.487 34.185 54.097 55.94 97.9 46.696zm-23.609-19.37c-11.573-10.168-22.676-11.233-32.875-3.156-4.036 3.197-6.852 3.776-8.816 1.813-4.027-4.028 2.417-11.57 13.47-15.766l4.5-1.708.268-4.992.269-4.993-4.244-2.251c-16.46-8.733-18.415-28.623-3.426-34.865l5.463-2.275 10 .306 10 .307 5 2.75c15.799 8.689 10.744 29.267-8.75 35.62l-3.75 1.222v9.888l2.75 1.117c9.16 3.722 13.48 6.136 16.648 9.304 8.97 8.97 2.992 16.023-6.507 7.678zm64.11 17.773c77.168-10.873 128.596-65.095 129.334-136.36l.165-15.945-3.766-.793c-12.623-2.66-12.237-10.266.672-13.26 48.861-11.332 56.031-82.457 11.067-109.771-28.657-17.408-59.011-10.607-80.18 17.963-2.954 3.987-6.029 7.25-6.832 7.25-3.015 0-5.46-3.825-5.46-8.542v-4.542l-6.651-2.984c-141.445-63.462-283.617 97.29-192.863 218.068l5.635 7.5-.631-7.5c-1.173-13.933 4.202-28.154 15.083-39.906l5.36-5.79-3.208-4.362-3.208-4.363-.366-7.252-.366-7.252 2.21-4.565c8.359-17.268 28.345-11.454 29.785 8.665l.5 6.985 2.11-.574c22.69-6.167 50.15-3.704 68.751 6.168.354.187.805-3.244 1.004-7.626l.362-7.966 3.022-4.331c7.923-11.356 21.334-9.924 27.207 2.905l2.48 5.418-.383 6.783c-.437 7.737-3.483 13.528-8.432 16.03-1.596.807-3.063 1.568-3.26 1.692-.199.125 2.051 2.957 5 6.295 23.206 26.279 21.934 63.44-2.748 80.245-3.71 2.526-4.355 3.805-1.644 3.264.963-.192 5.575-.888 10.25-1.547zm2.44-142.853c-13.645-3.267-26.44-16.604-26.44-27.56 0-8.555 4.904-8.84 11.67-.676 6.214 7.498 11.642 11.845 20.06 16.069 13.732 6.888 9.86 15.793-5.29 12.167zm-147.252-5.102c-4.17-3.884-2.26-6.935 6.473-10.34 8.304-3.239 14.177-7.444 20.421-14.623 5.5-6.323 7.557-7.159 10.262-4.17 5.694 6.292-2.678 21.198-15.512 27.62l-7.101 3.552h-6.177c-4.834 0-6.653-.443-8.366-2.04zm251.402-32.815c-.29-.47-1.724-4.183-3.184-8.25-5.399-15.032-13.884-28.989-24.573-40.415l-6.125-6.547 1.061-2.328c9.61-21.09 50.852-16.18 62.105 7.394l2.625 5.5-.032 9-.032 9-2.869 6.282c-5.217 11.426-25.633 25.773-28.976 20.364zM81.74 284.304c5.28-4.534 19.706-15.73 23.3-18.08.687-.45-4.93-17.118-6.794-20.162l-1.99-3.25h-3.855c-7.895 0-24.99 11.662-34.867 23.787l-4.308 5.288v8.84l3.314 2.644c1.823 1.454 5.986 4.109 9.25 5.899 6.717 3.682 5.408 4.09 15.95-4.966zm226.574-169.242c.571-1.513 1.958-4.6 3.083-6.86l2.044-4.11-3.136-4.33c-1.725-2.382-4.069-7.4-5.208-11.151l-2.072-6.821 1.164-6.685c4.392-25.222 27.847-38.724 48.95-28.18l5.953 2.976 4.423-3.295c2.433-1.812 7.216-5 10.629-7.086l6.206-3.792-2.812-3.267c-36.964-42.942-108.952-2.067-92.897 52.748 5.193 17.731 20.813 37.429 23.673 29.853z" style="fill:#888"/></svg>